<?xml version="1.0" encoding="utf-8"?>
<!-- Generator: Adobe Illustrator 19.1.1, SVG Export Plug-In . SVG Version: 6.00 Build 0)  -->
<svg version="1.1" id="Layer_1" xmlns="http://www.w3.org/2000/svg" xmlns:xlink="http://www.w3.org/1999/xlink" x="0px" y="0px"
	 width="98.3px" height="57.4px" viewBox="0 0 98.3 57.4" style="enable-background:new 0 0 98.3 57.4;" xml:space="preserve">
<style type="text/css">
	.st0{fill:#FFFFFF;stroke:#AFAFB0;stroke-width:0.5;stroke-miterlimit:10;}
	.st1{fill:#A5A5A5;}
	.st2{fill:#3E3E3E;}
	.st3{fill:#E4202B;}
	.st4{fill:#808080;}
	.st5{fill:#45494A;}
	.st6{clip-path:url(#SVGID_2_);}
	.st7{fill:#E3222C;stroke:#FFFFFF;stroke-width:1.6987;stroke-miterlimit:10;}
	.st8{fill:#04B04F;}
	.st9{fill:none;stroke:#FFFFFF;stroke-width:1.6987;stroke-miterlimit:10;}
	.st10{fill:#FDC010;}
	.st11{fill:#703A96;}
	.st12{fill:none;stroke:#C04040;stroke-width:0.5;stroke-miterlimit:10;}
	.st13{opacity:0.8;fill:none;stroke:#C04040;stroke-width:0.5;stroke-miterlimit:10;}
	.st14{fill:#C04040;}
	.st15{fill:none;stroke:#E6E7E8;stroke-width:0.5;stroke-miterlimit:10;}
	.st16{fill:#E6E7E8;}
	.st17{fill:#FFFFFF;stroke:#E4202C;stroke-width:0.6;stroke-miterlimit:10;}
</style>
<g>
	<path class="st0" d="M91.2,57.2H7.1c-3.8,0-6.8-3.1-6.8-6.8V7.1c0-3.8,3.1-6.8,6.8-6.8h84.1c3.8,0,6.8,3.1,6.8,6.8v43.3
		C98,54.1,94.9,57.2,91.2,57.2z"/>
	<g>
		<path class="st1" d="M28.9,37.6V20.2c0-0.7,0.3-1.3,0.8-1.7c0.5-0.4,1.2-0.6,1.9-0.6h8c1.2,0,2.3,0.2,3.2,0.7
			c1,0.5,1.8,1.1,2.3,1.9c0.6,0.8,0.9,1.8,0.9,2.8c0,2.1-1.6,3.7-3.7,4.6V28c0.7,0.1,0.9,0.3,1.5,0.6s1.2,0.7,1.7,1.2
			c0.5,0.5,0.9,1,1.1,1.6c0.3,0.6,0.4,1.2,0.4,1.9c0,2.1-0.7,3.8-2.2,5c-1.4,1.2-3.4,1.8-5.8,1.8h-7.5c-0.8,0-1.5-0.2-2-0.7
			C29.2,38.9,28.9,38.3,28.9,37.6z M34,22v4.6h4.7c0.8,0,1.5-0.2,2-0.6c0.5-0.4,0.7-1,0.7-1.8c0-0.7-0.3-1.3-0.8-1.6
			c-0.5-0.4-1.2-0.6-2-0.6H34z M34,30.8v5.2h5c1,0,1.7-0.2,2.3-0.7c0.6-0.5,0.9-1.1,0.9-2c0-0.7-0.3-1.3-0.9-1.8
			c-0.6-0.4-1.5-0.7-2.7-0.7H34z"/>
		<path class="st1" d="M61.6,33.3h-9.7c0.2,1.1,0.6,1.9,1.4,2.4c0.8,0.5,1.8,0.8,2.9,0.8c0.7,0,1.3-0.1,1.8-0.3
			c0.5-0.2,1.1-0.5,1.8-0.9s1.3-0.6,1.6-0.6c0.3,0,0.6,0.1,0.9,0.3c0.3,0.2,0.5,0.4,0.7,0.7c0.2,0.3,0.3,0.6,0.3,0.9
			c0,0.5-0.2,0.9-0.7,1.4c-0.4,0.5-1,0.9-1.7,1.2s-1.5,0.6-2.5,0.9c-0.9,0.2-1.8,0.3-2.6,0.3c-1.7,0-3.1-0.4-4.4-1.1
			c-1.3-0.7-2.3-1.8-3-3.1s-1.1-2.8-1.1-4.4c0-1.1,0.2-2.2,0.6-3.2c0.4-1,1-2,1.7-2.8s1.6-1.5,2.6-1.9c1-0.5,2.1-0.7,3.3-0.7
			c1.2,0,2.3,0.2,3.3,0.7c1,0.5,1.9,1.1,2.6,1.9s1.3,1.7,1.7,2.6s0.6,1.9,0.6,2.9C63.6,32.6,62.9,33.3,61.6,33.3z M51.8,30.3h7.2
			c-0.1-1-0.5-1.8-1.1-2.5c-0.6-0.6-1.5-0.9-2.5-0.9c-1,0-1.8,0.3-2.4,1C52.3,28.5,51.9,29.3,51.8,30.3z"/>
		<path class="st1" d="M67.8,38.3l-4.6-11.5c-0.2-0.5-0.3-0.9-0.3-1.3c0-0.7,0.2-1.2,0.7-1.6c0.5-0.4,1-0.6,1.7-0.6
			c1,0,1.7,0.5,2,1.6l2.9,9.8h0.1l2.9-9.8c0.3-1.1,1-1.6,2-1.6c0.7,0,1.2,0.2,1.7,0.6c0.5,0.4,0.7,0.9,0.7,1.6
			c0,0.4-0.1,0.8-0.3,1.3l-4.6,11.5c-0.2,0.6-0.5,1.1-0.9,1.4c-0.3,0.3-0.9,0.4-1.6,0.4S69,40,68.7,39.7C68.3,39.5,68,39,67.8,38.3z
			"/>
		<g>
			<path class="st2" d="M55.2,47.1l1.1-0.1c0.1,0.6,0.3,1,0.6,1.3s0.6,0.4,1.1,0.4c0.5,0,0.9-0.2,1.3-0.5s0.5-0.8,0.5-1.3
				c0-0.5-0.2-0.9-0.5-1.2s-0.7-0.5-1.2-0.5c-0.2,0-0.4,0-0.7,0.1l0.1-0.9c0.1,0,0.1,0,0.2,0c0.4,0,0.9-0.1,1.2-0.4s0.5-0.6,0.5-1.1
				c0-0.4-0.1-0.7-0.4-1s-0.6-0.4-1-0.4c-0.4,0-0.8,0.1-1,0.4s-0.4,0.6-0.5,1.2l-1.1-0.2c0.1-0.7,0.4-1.3,0.9-1.6s1-0.6,1.7-0.6
				c0.5,0,0.9,0.1,1.3,0.3s0.7,0.5,0.9,0.8s0.3,0.7,0.3,1.1c0,0.4-0.1,0.7-0.3,1s-0.5,0.5-0.9,0.7c0.5,0.1,0.9,0.4,1.2,0.7
				s0.4,0.8,0.4,1.4c0,0.8-0.3,1.4-0.8,1.9s-1.2,0.8-2.1,0.8c-0.8,0-1.4-0.2-1.9-0.7S55.3,47.8,55.2,47.1z"/>
			<path class="st2" d="M67.1,42.8l-1,0.1c-0.1-0.4-0.2-0.7-0.4-0.9c-0.3-0.3-0.6-0.5-1.1-0.5c-0.3,0-0.6,0.1-0.9,0.3
				c-0.3,0.2-0.6,0.6-0.8,1.1s-0.3,1.1-0.3,2c0.3-0.4,0.6-0.7,0.9-0.9s0.8-0.3,1.2-0.3c0.7,0,1.3,0.3,1.8,0.8s0.7,1.2,0.7,2
				c0,0.5-0.1,1-0.3,1.5s-0.6,0.8-1,1.1s-0.9,0.4-1.4,0.4c-0.9,0-1.6-0.3-2.2-1s-0.8-1.7-0.8-3.2c0-1.7,0.3-2.9,0.9-3.6
				c0.5-0.7,1.3-1,2.2-1c0.7,0,1.2,0.2,1.7,0.6S67,42.2,67.1,42.8z M62.8,46.6c0,0.4,0.1,0.7,0.2,1s0.4,0.6,0.6,0.8s0.6,0.3,0.9,0.3
				c0.4,0,0.8-0.2,1.1-0.5s0.5-0.8,0.5-1.5c0-0.6-0.2-1.1-0.5-1.4s-0.7-0.5-1.2-0.5c-0.5,0-0.9,0.2-1.2,0.5S62.8,46,62.8,46.6z"/>
			<path class="st2" d="M68,45.1c0-1,0.1-1.8,0.3-2.5s0.5-1.1,0.9-1.4s0.9-0.5,1.6-0.5c0.5,0,0.9,0.1,1.2,0.3s0.6,0.5,0.9,0.8
				s0.4,0.8,0.5,1.3s0.2,1.2,0.2,2c0,1-0.1,1.8-0.3,2.4s-0.5,1.1-0.9,1.4s-0.9,0.5-1.6,0.5c-0.8,0-1.5-0.3-2-0.9
				C68.3,47.9,68,46.7,68,45.1z M69.1,45.1c0,1.4,0.2,2.3,0.5,2.8s0.7,0.7,1.2,0.7s0.9-0.2,1.2-0.7s0.5-1.4,0.5-2.8
				c0-1.4-0.2-2.4-0.5-2.8s-0.7-0.7-1.2-0.7c-0.5,0-0.9,0.2-1.2,0.6C69.3,42.7,69.1,43.7,69.1,45.1z"/>
		</g>
		<path class="st3" d="M49.8,41c-2.7,1.9-6.1,3.7-9.5,3.7c-8.8,0-15.9-7-15.9-15.7c0-8.7,7.1-15.7,15.9-15.7c1.9,0,4,0.4,5.7,1
			l-1.3,4L56,16.4L48.2,8l-0.9,2.8c-2.2-0.8-4.6-1.2-6.9-1.2c-10.8,0-19.7,8.7-19.7,19.5c0,10.7,8.8,19.5,19.7,19.5
			c5.7,0,11.3-3.2,15.1-7.4l0,0H49.8z"/>
	</g>
</g>
</svg>
