<?xml version="1.0" encoding="utf-8"?>
<!-- Generator: Adobe Illustrator 19.1.1, SVG Export Plug-In . SVG Version: 6.00 Build 0)  -->
<svg version="1.1" id="Layer_1" xmlns="http://www.w3.org/2000/svg" xmlns:xlink="http://www.w3.org/1999/xlink" x="0px" y="0px"
	 width="98.3px" height="57.4px" viewBox="0 0 98.3 57.4" style="enable-background:new 0 0 98.3 57.4;" xml:space="preserve">
<style type="text/css">
	.st0{fill:#FFFFFF;stroke:#AFAFB0;stroke-width:0.5;stroke-miterlimit:10;}
	.st1{fill:#A5A5A5;}
	.st2{fill:#3E3E3E;}
	.st3{fill:#E4202B;}
	.st4{fill:#808080;}
	.st5{fill:#45494A;}
	.st6{clip-path:url(#SVGID_2_);}
	.st7{fill:#E3222C;stroke:#FFFFFF;stroke-width:1.6987;stroke-miterlimit:10;}
	.st8{fill:#04B04F;}
	.st9{fill:none;stroke:#FFFFFF;stroke-width:1.6987;stroke-miterlimit:10;}
	.st10{fill:#FDC010;}
	.st11{fill:#703A96;}
	.st12{fill:#A09F9F;}
	.st13{fill:#C04040;}
	.st14{fill:none;stroke:#C04040;stroke-width:0.5;stroke-miterlimit:10;}
	.st15{opacity:0.8;fill:none;stroke:#C04040;stroke-width:0.5;stroke-miterlimit:10;}
	.st16{fill:none;stroke:#E6E7E8;stroke-width:0.5;stroke-miterlimit:10;}
	.st17{fill:#E6E7E8;}
	.st18{fill:#FFFFFF;stroke:#E4202C;stroke-width:0.6;stroke-miterlimit:10;}
</style>
<g>
	<path class="st0" d="M91.2,57.2H7.1c-3.8,0-6.8-3.1-6.8-6.8V7.1c0-3.8,3.1-6.8,6.8-6.8h84.1c3.8,0,6.8,3.1,6.8,6.8v43.3
		C98,54.1,94.9,57.2,91.2,57.2z"/>
	<g>
		<g>
			<path class="st12" d="M32.7,29.9v-1.6c0.3,0.2,0.6,0.4,0.9,0.5c0.3,0.1,0.7,0.2,1,0.2c0.2,0,0.4,0,0.5-0.1c0.2,0,0.3-0.1,0.4-0.2
				c0.1-0.1,0.2-0.1,0.2-0.2c0-0.1,0.1-0.2,0.1-0.3c0-0.1,0-0.3-0.1-0.4c-0.1-0.1-0.2-0.2-0.3-0.3s-0.3-0.2-0.5-0.3
				c-0.2-0.1-0.4-0.2-0.6-0.3c-0.6-0.2-1-0.5-1.3-0.9s-0.4-0.7-0.4-1.2c0-0.4,0.1-0.7,0.2-1c0.2-0.3,0.4-0.5,0.6-0.7
				c0.3-0.2,0.6-0.3,0.9-0.4c0.3-0.1,0.7-0.1,1.1-0.1c0.4,0,0.7,0,1,0.1c0.3,0,0.6,0.1,0.8,0.2v1.5c-0.1-0.1-0.3-0.2-0.4-0.2
				c-0.1-0.1-0.3-0.1-0.4-0.2c-0.2,0-0.3-0.1-0.4-0.1c-0.1,0-0.3,0-0.4,0c-0.2,0-0.4,0-0.5,0.1s-0.3,0.1-0.4,0.1
				c-0.1,0.1-0.2,0.1-0.2,0.2c-0.1,0.1-0.1,0.2-0.1,0.3c0,0.1,0,0.2,0.1,0.3c0.1,0.1,0.2,0.2,0.3,0.3s0.3,0.2,0.4,0.3
				c0.2,0.1,0.4,0.2,0.6,0.3c0.3,0.1,0.5,0.2,0.8,0.4c0.2,0.1,0.4,0.3,0.6,0.5s0.3,0.4,0.4,0.6c0.1,0.2,0.1,0.5,0.1,0.8
				c0,0.4-0.1,0.7-0.2,1c-0.2,0.3-0.4,0.5-0.6,0.7s-0.6,0.3-0.9,0.4c-0.3,0.1-0.7,0.1-1.1,0.1c-0.4,0-0.8,0-1.1-0.1
				C33.2,30.2,32.9,30.1,32.7,29.9z"/>
			<path class="st12" d="M47,30.2h-1.6v-4.3c0-0.5,0-1,0.1-1.5h0c-0.1,0.4-0.2,0.8-0.2,1l-1.7,4.9h-1.3l-1.7-4.8
				c0-0.1-0.1-0.5-0.2-1h0c0,0.7,0.1,1.3,0.1,1.9v4h-1.5V23h2.4l1.5,4.3c0.1,0.3,0.2,0.7,0.3,1h0c0.1-0.4,0.2-0.7,0.3-1l1.5-4.3H47
				V30.2z"/>
			<path class="st12" d="M54.9,30.2h-1.8l-0.5-1.6h-2.6l-0.5,1.6h-1.8l2.6-7.2h1.9L54.9,30.2z M52.3,27.4L51.5,25
				c-0.1-0.2-0.1-0.4-0.1-0.6h0c0,0.2-0.1,0.4-0.1,0.6l-0.8,2.4H52.3z"/>
			<path class="st12" d="M61.9,30.2H60l-1.1-1.9c-0.1-0.1-0.2-0.3-0.2-0.4c-0.1-0.1-0.2-0.2-0.2-0.3c-0.1-0.1-0.2-0.1-0.2-0.2
				c-0.1,0-0.2-0.1-0.3-0.1h-0.4v2.8h-1.6V23h2.6c1.7,0,2.6,0.7,2.6,2c0,0.3,0,0.5-0.1,0.7s-0.2,0.4-0.3,0.6
				c-0.1,0.2-0.3,0.3-0.5,0.4c-0.2,0.1-0.4,0.2-0.7,0.3v0c0.1,0,0.2,0.1,0.3,0.2c0.1,0.1,0.2,0.2,0.3,0.3s0.2,0.2,0.3,0.3
				c0.1,0.1,0.2,0.2,0.2,0.3L61.9,30.2z M57.4,24.2v2h0.7c0.3,0,0.6-0.1,0.8-0.3c0.2-0.2,0.3-0.5,0.3-0.8c0-0.6-0.4-0.9-1.1-0.9
				H57.4z"/>
			<path class="st12" d="M67.4,24.3h-2.1v5.9h-1.6v-5.9h-2V23h5.7V24.3z"/>
			<path class="st13" d="M68.1,29.9v-1.2c0.1,0.1,0.2,0.2,0.4,0.3c0.2,0.1,0.3,0.1,0.5,0.2c0.2,0.1,0.3,0.1,0.5,0.1
				c0.2,0,0.3,0,0.5,0c0.5,0,0.9-0.1,1.1-0.3s0.4-0.4,0.4-0.7c0-0.2,0-0.3-0.1-0.4c-0.1-0.1-0.2-0.2-0.3-0.3
				c-0.1-0.1-0.3-0.2-0.5-0.3c-0.2-0.1-0.4-0.2-0.6-0.3c-0.2-0.1-0.5-0.3-0.7-0.4c-0.2-0.1-0.4-0.3-0.5-0.4
				c-0.2-0.2-0.3-0.3-0.4-0.5c-0.1-0.2-0.1-0.4-0.1-0.7c0-0.3,0.1-0.6,0.2-0.9s0.4-0.5,0.6-0.6s0.5-0.3,0.9-0.4
				c0.3-0.1,0.6-0.1,1-0.1c0.8,0,1.3,0.1,1.6,0.3v1.2c-0.4-0.3-0.9-0.4-1.6-0.4c-0.2,0-0.4,0-0.5,0c-0.2,0-0.3,0.1-0.5,0.2
				s-0.3,0.2-0.3,0.3s-0.1,0.3-0.1,0.4c0,0.2,0,0.3,0.1,0.4c0.1,0.1,0.2,0.2,0.3,0.3c0.1,0.1,0.3,0.2,0.5,0.3s0.4,0.2,0.6,0.3
				c0.3,0.1,0.5,0.3,0.7,0.4c0.2,0.1,0.4,0.3,0.6,0.5s0.3,0.4,0.4,0.6c0.1,0.2,0.1,0.5,0.1,0.7c0,0.4-0.1,0.7-0.2,0.9
				c-0.1,0.3-0.3,0.5-0.6,0.6c-0.3,0.2-0.5,0.3-0.9,0.3s-0.7,0.1-1,0.1c-0.1,0-0.3,0-0.4,0s-0.4,0-0.5-0.1c-0.2,0-0.4-0.1-0.5-0.1
				C68.3,30.1,68.2,30,68.1,29.9z"/>
			<path class="st13" d="M79,29.9c-0.5,0.3-1.2,0.4-2,0.4c-1,0-1.9-0.3-2.5-1s-0.9-1.5-0.9-2.6c0-1.2,0.4-2.1,1.1-2.8
				c0.7-0.7,1.6-1.1,2.7-1.1c0.7,0,1.3,0.1,1.7,0.3v1.2c-0.5-0.3-1-0.4-1.6-0.4c-0.8,0-1.4,0.3-1.9,0.7c-0.5,0.5-0.7,1.2-0.7,2
				c0,0.8,0.2,1.4,0.7,1.9c0.5,0.5,1,0.7,1.8,0.7c0.7,0,1.3-0.2,1.8-0.5V29.9z"/>
			<path class="st13" d="M86.3,30.2H85l-0.6-1.8h-2.8l-0.6,1.8h-1.3l2.7-7.2h1.3L86.3,30.2z M84,27.4l-1-2.9c0-0.1-0.1-0.2-0.1-0.5
				h0c0,0.2-0.1,0.3-0.1,0.5l-1,2.9H84z"/>
			<path class="st13" d="M93.4,30.2h-1.3l-3.4-5.3c-0.1-0.1-0.2-0.3-0.2-0.4h0c0,0.2,0,0.5,0,1v4.7h-1.2V23h1.4l3.3,5.2
				c0.1,0.2,0.2,0.4,0.3,0.4h0c0-0.2,0-0.5,0-1V23h1.1V30.2z"/>
		</g>
		<g>
			<g>
				<path class="st14" d="M24,34.5c0.7,0.5,1.4,1,2,1.5c0.2,0.2,0.5,0.3,0.7,0.5c0.6,0.5,0.9,1.1,0.7,1.9c-0.2,0.7-0.7,1.2-1.4,1.4
					c-0.7,0.2-1.4-0.1-1.8-0.7c-0.6-0.8-1.3-1.7-1.9-2.5c-0.1-0.1-0.1-0.2-0.2-0.2c-1.8,1.1-3.7,1.4-5.7,0.8
					c-1.6-0.5-2.8-1.4-3.6-2.8c-1.7-2.7-1.3-6.2,1.1-8.4c2.4-2.2,5.9-2.4,8.6-0.5C24.9,27.1,26.3,31,24,34.5z M18.5,26.4
					c-2.4,0-4.3,1.9-4.3,4.3c0,2.4,1.9,4.3,4.3,4.3c2.4,0,4.4-1.9,4.4-4.4C22.8,28.3,20.9,26.4,18.5,26.4z"/>
				<path class="st15" d="M4,24.8c0-2.2,0-4.4,0-6.6c0-0.4,0.1-0.5,0.5-0.5c0.7,0,1.4,0,2.2,0c0.3,0,0.4,0.1,0.4,0.4
					c0,4.4,0,8.8,0,13.2c0,0.3-0.1,0.5-0.5,0.5c-0.7,0-1.5,0-2.2,0c-0.3,0-0.5-0.1-0.5-0.5C4,29.2,4,27,4,24.8L4,24.8z"/>
				<path class="st15" d="M10.2,24.8c0,2.2,0,4.4,0,6.5c0,0.4-0.1,0.5-0.5,0.5c-0.2,0-0.4,0-0.6,0c-0.3,0-0.5-0.1-0.5-0.5
					c0-1.7,0-3.3,0-5c0-2.7,0-5.4,0-8.2c0-0.4,0.1-0.5,0.5-0.5c0.2,0,0.4,0,0.6,0c0.3,0,0.4,0.1,0.4,0.4c0,1.6,0,3.2,0,4.8
					C10.2,23.6,10.2,24.2,10.2,24.8z"/>
				<path class="st15" d="M11.8,26.3c0-1,0-2,0-3c0-1.7,0-3.4,0-5.1c0-0.4,0.1-0.5,0.5-0.5c0.5,0,0.9,0,1.4,0c0.3,0,0.4,0.1,0.4,0.4
					c0,1.9,0,3.8,0,5.7c0,0.1,0,0.2-0.1,0.2C13.2,24.7,12.5,25.4,11.8,26.3z"/>
				<path class="st15" d="M21.2,23.2c-0.8-0.2-1.5-0.3-2.3-0.5c0,0,0-0.1,0-0.2c0-1.4,0-2.9,0-4.3c0-0.3,0.1-0.5,0.5-0.5
					c0.5,0,1,0,1.5,0c0.3,0,0.4,0.1,0.4,0.4c0,0,0,0.1,0,0.1C21.2,19.9,21.2,21.5,21.2,23.2z"/>
				<path class="st15" d="M15.8,23.2c0-0.5,0-1,0-1.6c0-1.1,0-2.3,0-3.4c0-0.3,0.1-0.5,0.5-0.5c0.2,0,0.5,0,0.7,0
					c0.3,0,0.4,0.1,0.4,0.4c0,1.5,0,3,0,4.6c0,0.1-0.1,0.2-0.1,0.2C16.7,23,16.3,23.1,15.8,23.2z"/>
			</g>
			<path class="st13" d="M18.5,26.4c2.4,0,4.3,1.9,4.3,4.3c0,2.4-1.9,4.4-4.4,4.4c-2.4,0-4.3-1.9-4.3-4.3
				C14.2,28.3,16.1,26.4,18.5,26.4z"/>
		</g>
	</g>
</g>
</svg>
